<svg width="100" height="100" viewBox="0 0 100 100" fill="none" xmlns="http://www.w3.org/2000/svg">
<path fill-rule="evenodd" clip-rule="evenodd" d="M100 50C100 63.2608 94.7322 75.9785 85.3553 85.3553C75.9785 94.7322 63.2608 100 50 100C36.7392 100 24.0215 94.7322 14.6447 85.3553C5.26784 75.9785 0 63.2608 0 50C0 36.7392 5.26784 24.0215 14.6447 14.6447C24.0215 5.26784 36.7392 0 50 0C63.2608 0 75.9785 5.26784 85.3553 14.6447C94.7322 24.0215 100 36.7392 100 50ZM75.1875 31.0625C74.7411 30.6176 74.2095 30.2673 73.6246 30.0326C73.0396 29.7979 72.4134 29.6835 71.7833 29.6963C71.1531 29.7092 70.5321 29.8489 69.9572 30.1073C69.3823 30.3657 68.8655 30.7373 68.4375 31.2L46.7313 58.8562L33.65 45.7687C32.7614 44.9408 31.5861 44.49 30.3717 44.5114C29.1574 44.5328 27.9987 45.0248 27.1399 45.8836C26.281 46.7424 25.7891 47.9011 25.7677 49.1155C25.7462 50.3299 26.197 51.5052 27.025 52.3938L43.5625 68.9375C44.008 69.3822 44.5385 69.7326 45.1224 69.9678C45.7063 70.2031 46.3315 70.3183 46.9609 70.3066C47.5903 70.2949 48.2108 70.1566 48.7856 69.8999C49.3604 69.6432 49.8775 69.2734 50.3062 68.8125L75.2563 37.625C76.1068 36.7406 76.5767 35.558 76.565 34.331C76.5534 33.104 76.061 31.9305 75.1937 31.0625H75.1875Z" fill="#3BB77E"/>
</svg>
